<svg width="72" height="72" fill="none" xmlns="http://www.w3.org/2000/svg"><path fill-rule="evenodd" clip-rule="evenodd" d="M27.737 57.865c-6.697.394-11.428 2.035-11.634 4.393-.29 3.301 8.397 6.758 19.4 7.72 11.004.963 20.159-.933 20.447-4.234.207-2.358-4.167-4.795-10.694-6.346l-1.995 2.225c1.79.794 2.856 1.776 2.771 2.752-.168 1.925-4.765 3.096-10.267 2.615-5.502-.482-9.825-2.433-9.657-4.358.085-.976 1.307-1.758 3.207-2.23l-1.578-2.537z" fill="#475497"/><path d="M57 21.429c0 8.98-12.966 31.368-18.522 40.547a2.88 2.88 0 0 1-4.956 0C27.966 52.796 15 30.41 15 21.43 15 10 24.882 2 36 2s21 8 21 19.429z" fill="#475497"/><ellipse cx="36" cy="21.5" rx="10" ry="9.5" fill="#fff"/></svg>