<svg fill="none" height="72" width="72" xmlns="http://www.w3.org/2000/svg"><g fill="#475497"><circle cx="27" cy="19" r="14"/><path clip-rule="evenodd" d="M58 49c7.732 0 14-6.268 14-14s-6.268-14-14-14-14 6.268-14 14c0 1.158.14 2.282.405 3.358a27.098 27.098 0 0 1 6.947 8.966A13.938 13.938 0 0 0 58 49zm-1.208-23.14l3.985.349-.61 6.973 6.973.61-.349 3.985-6.973-.61-.61 6.973-3.985-.349.61-6.973-6.973-.61.349-3.985 6.973.61z" fill-rule="evenodd"/><path d="M51 57.823c0 12.605-10.745 8.559-24 8.559s-24 4.046-24-8.56C3 45.219 13.745 35 27 35s24 10.218 24 22.823z"/></g></svg>